<?xml version="1.0" encoding="utf-8"?>
<!-- Generator: Adobe Illustrator 25.1.0, SVG Export Plug-In . SVG Version: 6.00 Build 0)  -->
<svg version="1.1" id="Ebene_1" xmlns="http://www.w3.org/2000/svg" xmlns:xlink="http://www.w3.org/1999/xlink" x="0px" y="0px"
	 viewBox="0 0 44 41" style="enable-background:new 0 0 44 41;" xml:space="preserve">
<style type="text/css">
	.st0{clip-path:url(#SVGID_2_);}
	.st1{clip-path:url(#SVGID_4_);}
	.st2{clip-path:url(#SVGID_6_);}
	.st3{clip-path:url(#SVGID_8_);}
</style>
<g>
	<defs>
		<path id="SVGID_1_" d="M22.1,4.85c3.87,0,7,4,7,9s-3.13,9-7,9s-7-4-7-9S18.23,4.85,22.1,4.85z M22.1,25.85c5.51,0,10-5.38,10-12
			s-4.49-12-10-12s-10,5.38-10,12S16.6,25.85,22.1,25.85z"/>
	</defs>
	<clipPath id="SVGID_2_">
		<use xlink:href="#SVGID_1_"  style="overflow:visible;"/>
	</clipPath>
	<g class="st0">
		<defs>
			<rect id="SVGID_3_" x="-170.62" y="-293.55" width="1000" height="3060"/>
		</defs>
		<clipPath id="SVGID_4_">
			<use xlink:href="#SVGID_3_"  style="overflow:visible;"/>
		</clipPath>
		<rect x="7.1" y="-3.15" class="st1" width="30" height="34"/>
	</g>
</g>
<g>
	<defs>
		<path id="SVGID_5_" d="M31.25,24.85c-0.83-0.08-1.57,0.52-1.65,1.35s0.52,1.57,1.35,1.65c4.65,0.55,8.26,4.33,8.58,9H4.67
			c0.35-4.66,3.94-8.42,8.58-9c0.83-0.08,1.43-0.82,1.35-1.65s-0.82-1.43-1.65-1.35c-0.11,0-11.35,1.28-11.35,13.49
			c0,0.83,0.67,1.5,1.5,1.5h38c0.83,0,1.5-0.67,1.5-1.5C42.6,26.13,31.36,24.85,31.25,24.85z"/>
	</defs>
	<clipPath id="SVGID_6_">
		<use xlink:href="#SVGID_5_"  style="overflow:visible;"/>
	</clipPath>
	<g class="st2">
		<defs>
			<rect id="SVGID_7_" x="-170.62" y="-293.55" width="1000" height="3060"/>
		</defs>
		<clipPath id="SVGID_8_">
			<use xlink:href="#SVGID_7_"  style="overflow:visible;"/>
		</clipPath>
		<rect x="-3.4" y="19.84" class="st3" width="51" height="25"/>
	</g>
</g>
</svg>
